<?xml version="1.0" encoding="iso-8859-1"?>
<!-- Uploaded to: SVG Repo, www.svgrepo.com, Generator: SVG Repo Mixer Tools -->
<svg height="800px" width="800px" version="1.1" id="Layer_1" xmlns="http://www.w3.org/2000/svg" xmlns:xlink="http://www.w3.org/1999/xlink" 
	 viewBox="0 0 512 512" xml:space="preserve">
<path style="fill:#FF0F4D;" d="M278.302,0C270.754,0,263.314,0.46,256,1.328l-20.898,266.318L256,512h135.583V336.022
	c44.864-34.181,73.827-88.161,73.827-148.916C465.41,83.771,381.64,0,278.302,0z"/>
<path style="fill:#FF6E7A;" d="M91.196,187.108L46.59,315.375h44.606v109.702h99.314V512H256V1.328
	C163.179,12.355,91.196,91.319,91.196,187.108z"/>
<path style="fill:#B4B4B4;" d="M257.404,267.646l20.898,83.652h11.177c17.996,0,32.585-14.589,32.585-32.585v-30.169
	L257.404,267.646z"/>
<path style="fill:#E0E0E0;" d="M234.54,288.544v30.169c0,17.996,14.589,32.585,32.585,32.585h11.177v-83.652L234.54,288.544z"/>
<path style="fill:#FFBA00;" d="M278.302,87.593l-20.898,95.264l20.898,105.687h43.762c3.347-16.287,11.44-30.841,22.781-42.142
	l0.006,0.006c16.576-16.849,26.802-39.962,26.802-65.465C371.655,129.388,329.859,87.593,278.302,87.593z"/>
<path style="fill:#FDE09C;" d="M184.951,180.944c0,25.503,10.226,48.617,26.803,65.465l0.006-0.006
	c11.34,11.301,19.434,25.855,22.781,42.142h43.762V87.593C226.746,87.593,184.951,129.388,184.951,180.944z"/>
<path style="fill:#FF8E00;" d="M278.303,138.261L278.303,138.261L267.854,153.6l10.449,16.008l0,0
	c6.251,0,11.336,5.086,11.336,11.336c0,6.251-5.084,11.336-11.336,11.336l0,0l-10.449,50.484l10.449,45.78h15.673v-67.912
	c15.801-6.262,27.01-21.686,27.01-39.689C320.985,157.409,301.839,138.261,278.303,138.261z"/>
<path style="fill:#FFBA00;" d="M266.966,180.944c0-6.251,5.086-11.335,11.336-11.336v-31.347c-23.535,0-42.683,19.148-42.683,42.683
	c0,18.003,11.21,33.426,27.011,39.689v67.911h15.673V192.28C272.052,192.28,266.966,187.195,266.966,180.944z"/>
</svg>