<?xml version="1.0" encoding="utf-8"?>
<!-- Uploaded to: SVG Repo, www.svgrepo.com, Generator: SVG Repo Mixer Tools -->
<svg version="1.1" id="Uploaded to svgrepo.com" xmlns="http://www.w3.org/2000/svg" xmlns:xlink="http://www.w3.org/1999/xlink" 
	 width="800px" height="800px" viewBox="0 0 32 32" xml:space="preserve">
<style type="text/css">
	.hatch_een{fill:#265AA5;}
	.hatch_twee{fill:#FFC5BB;}
</style>
<g>
	<path class="hatch_twee" d="M28,24.534v1.414L22.948,31h-1.414L28,24.534z M25.534,31h1.414L28,29.948v-1.414L25.534,31z M6.948,31
		L28,9.948V9.306l-12,12l-0.423-0.35L5.534,31H6.948z M3,29.534v1.414l11.161-11.161l-0.774-0.64L3,29.534z M17.534,31h1.414
		L28,21.948v-1.414L17.534,31z M9.534,31h1.414L28,13.948v-1.414L9.534,31z M13.534,31h1.414L28,17.948v-1.414L13.534,31z"/>
	<path class="hatch_een" d="M29,1.5v4C29,5.776,28.776,6,28.5,6S28,5.776,28,5.5V2.707L16.354,14.354
		c-0.182,0.184-0.473,0.195-0.672,0.032l-3.65-3.018l-9.543,9.544c-0.098,0.098-0.226,0.146-0.354,0.146s-0.256-0.049-0.354-0.146
		c-0.195-0.195-0.195-0.512,0-0.707l9.865-9.865c0.183-0.183,0.474-0.195,0.672-0.032l3.65,3.018L27.293,2H24.5
		C24.224,2,24,1.776,24,1.5S24.224,1,24.5,1h4C28.776,1,29,1.224,29,1.5z M28,8.306c0.2,0,0.259,0.025,0.382,0.076
		C28.756,8.537,29,8.902,29,9.306V31c0,0.552-0.448,1-1,1H3c-0.552,0-1-0.448-1-1v-4c0-0.265,0.105-0.52,0.293-0.707l9-9
		C11.487,17.099,11.743,17,12,17c0.225,0,0.451,0.076,0.637,0.229l3.299,2.727L27.293,8.599C27.484,8.408,27.8,8.306,28,8.306z
		 M28,9.306l-12,12L12,18l-9,9v4h25V9.306z"/>
</g>
</svg>